<?xml version="1.0" standalone="no"?>
<!DOCTYPE svg PUBLIC "-//W3C//DTD SVG 20010904//EN"
 "http://www.w3.org/TR/2001/REC-SVG-20010904/DTD/svg10.dtd">
<svg version="1.0" xmlns="http://www.w3.org/2000/svg"
 width="3375.000000pt" height="3375.000000pt" viewBox="0 0 3375.000000 3375.000000"
 preserveAspectRatio="xMidYMid meet">

<g transform="translate(0.000000,3375.000000) scale(0.100000,-0.100000)"
fill="#000000" stroke="none">
<path d="M11666 19699 c-25 -30 -26 -35 -26 -165 0 -206 8 -214 225 -214 217
0 225 8 225 213 l0 135 -29 31 -29 31 -170 0 -170 0 -26 -31z"/>
<path d="M21627 19706 c-32 -30 -41 -82 -35 -221 3 -99 5 -107 31 -133 l27
-27 171 0 171 0 24 28 c23 27 24 34 24 176 l0 147 -28 27 -28 27 -166 0 c-160
0 -166 -1 -191 -24z"/>
<path d="M24895 19706 c-31 -31 -38 -73 -33 -208 6 -171 15 -178 225 -178 143
0 192 11 212 48 6 12 11 79 11 161 0 135 -1 140 -26 170 l-26 31 -169 0 c-166
0 -170 -1 -194 -24z"/>
<path d="M14833 19682 c-13 -9 -27 -33 -33 -52 -14 -49 -14 -2712 0 -2762 17
-61 36 -68 188 -68 128 0 134 1 157 25 l25 24 0 1401 0 1401 -25 24 c-23 24
-29 25 -157 25 -111 0 -137 -3 -155 -18z"/>
<path d="M26023 19676 l-28 -24 -5 -364 -5 -363 -183 -5 c-230 -6 -222 0 -222
-162 0 -102 1 -110 25 -133 24 -25 26 -25 204 -25 l180 0 3 -637 c4 -622 4
-640 26 -717 71 -256 200 -380 444 -431 48 -11 134 -15 282 -15 274 0 271 -2
264 184 -5 143 0 140 -241 146 -179 6 -195 8 -242 31 -57 29 -105 91 -132 172
-16 47 -18 115 -21 660 l-3 607 273 0 c199 1 277 4 289 13 30 23 39 56 39 140
0 93 -13 142 -40 157 -11 6 -132 10 -289 10 l-271 0 0 345 c0 367 -4 400 -48
424 -12 6 -75 11 -146 11 -118 0 -127 -1 -153 -24z"/>
<path d="M29535 19676 c-13 -13 -26 -39 -30 -57 -3 -19 -4 -650 -3 -1402 l3
-1369 28 -24 c27 -23 35 -24 163 -24 130 0 136 1 159 25 l25 24 0 1391 c0
1482 1 1436 -45 1454 -9 3 -75 6 -146 6 -124 0 -131 -1 -154 -24z"/>
<path d="M9235 19648 c-40 -23 -44 -39 -44 -168 -1 -108 2 -128 19 -150 l19
-25 418 -5 418 -5 5 -1228 5 -1229 24 -19 c20 -17 40 -19 168 -19 l145 0 29
29 29 29 0 1221 0 1221 406 0 c259 0 412 4 425 10 37 21 49 63 49 180 0 110 0
112 -29 141 l-29 29 -1019 0 c-747 -1 -1023 -4 -1038 -12z"/>
<path d="M18976 19637 c-14 -14 -27 -40 -31 -58 -3 -19 -4 -640 -3 -1381 l3
-1346 25 -27 25 -26 640 4 c603 4 645 5 733 25 236 53 368 118 498 247 78 78
97 104 142 195 57 115 102 274 121 425 17 135 25 683 13 895 -12 203 -29 313
-69 435 -112 347 -338 528 -760 612 -76 14 -171 17 -700 20 l-613 4 -24 -24z
m1287 -360 c284 -76 423 -256 469 -607 16 -129 16 -739 0 -885 -27 -229 -76
-358 -177 -460 -152 -154 -336 -189 -940 -183 l-270 3 -3 1083 -2 1084 412 -4
c409 -4 414 -5 511 -31z"/>
<path d="M4020 19611 c0 -5 30 -75 67 -155 l68 -146 1491 0 c1582 0 1573 0
1711 -46 422 -141 702 -490 743 -924 22 -237 -34 -466 -165 -667 -179 -274
-465 -450 -786 -483 -56 -5 -308 -10 -560 -10 l-459 0 0 785 0 785 473 0 472
0 88 150 c48 82 87 152 87 155 0 3 -322 5 -715 5 l-715 0 0 -1096 0 -1095 698
4 c674 3 700 4 794 25 290 66 517 191 716 396 189 195 306 416 363 687 28 133
31 368 6 505 -98 542 -506 971 -1052 1106 l-90 22 -1617 3 c-972 2 -1618 0
-1618 -6z"/>
<path d="M4280 19046 c0 -2 31 -71 69 -152 l70 -149 395 -3 396 -2 2 -928 3
-927 155 0 155 0 3 1083 2 1082 -625 0 c-344 0 -625 -2 -625 -4z"/>
<path d="M13205 18941 c-334 -78 -550 -277 -659 -606 -41 -125 -56 -217 -62
-390 -18 -442 80 -746 309 -961 91 -86 228 -160 362 -196 110 -29 417 -32 544
-5 188 41 358 132 485 260 124 127 170 249 110 296 -24 19 -40 21 -172 21
l-146 0 -40 -47 c-157 -181 -271 -241 -472 -251 -133 -6 -214 14 -309 76 -160
104 -270 312 -278 526 l-2 71 735 5 c404 3 736 6 737 8 36 37 43 173 18 358
-57 432 -273 713 -630 820 -80 24 -110 27 -270 30 -149 3 -194 0 -260 -15z
m320 -281 c252 -36 441 -265 462 -556 l6 -84 -563 0 -563 0 7 78 c13 163 69
300 162 401 127 137 286 190 489 161z"/>
<path d="M16350 18946 c-393 -78 -628 -316 -716 -726 -22 -101 -31 -451 -15
-598 47 -447 271 -730 660 -834 97 -26 375 -36 489 -19 379 60 631 287 727
655 36 140 49 299 42 521 -7 210 -28 337 -77 463 -103 266 -315 453 -592 523
-105 27 -414 36 -518 15z m362 -310 c154 -33 280 -131 348 -270 53 -109 69
-174 82 -349 13 -168 0 -420 -27 -522 -29 -112 -79 -202 -152 -274 -114 -112
-244 -157 -423 -148 -252 13 -425 149 -499 390 -54 177 -54 617 0 794 61 200
202 337 389 377 85 19 198 19 282 2z"/>
<path d="M23138 18950 c-359 -61 -594 -326 -675 -760 -27 -149 -25 -508 5
-656 44 -220 105 -358 220 -493 162 -190 446 -286 746 -252 122 14 190 33 280
78 90 45 117 63 200 143 l69 65 -6 -210 c-7 -232 -20 -311 -66 -408 -33 -70
-103 -142 -169 -176 -94 -48 -187 -65 -352 -65 -176 0 -238 15 -337 81 -67 44
-105 92 -163 207 -29 58 -55 95 -70 103 -36 18 -241 17 -285 -2 -70 -29 -67
-111 12 -275 38 -79 59 -107 132 -180 113 -113 220 -170 411 -221 107 -29 404
-37 548 -15 342 52 562 221 662 508 65 190 63 145 67 1328 2 591 1 1085 -2
1098 -3 13 -18 35 -32 48 -25 23 -32 24 -159 24 l-132 0 -26 -31 c-24 -28 -26
-37 -26 -133 l0 -103 -83 81 c-121 119 -239 182 -393 212 -81 15 -295 17 -376
4z m408 -331 c189 -36 342 -199 406 -434 19 -72 22 -105 22 -315 0 -210 -3
-243 -22 -313 -59 -214 -185 -364 -352 -418 -82 -27 -233 -36 -326 -20 -200
35 -347 182 -404 405 -70 275 -44 662 58 850 33 61 113 150 164 182 114 72
282 96 454 63z"/>
<path d="M27905 18946 c-88 -17 -210 -64 -295 -113 -153 -89 -290 -271 -290
-385 0 -62 11 -83 51 -97 41 -14 207 -14 248 0 25 9 39 25 62 71 103 203 368
294 646 222 189 -49 283 -197 283 -446 l0 -67 -32 -6 c-18 -2 -177 -25 -353
-50 -440 -61 -580 -99 -755 -207 -162 -99 -252 -218 -286 -378 -28 -134 2
-294 76 -410 90 -140 273 -259 460 -301 127 -28 364 -23 480 11 125 36 244
104 335 192 44 43 81 78 83 78 1 0 2 -47 2 -105 0 -99 2 -107 25 -130 23 -24
29 -25 158 -25 120 0 135 2 155 20 12 11 24 31 27 43 3 12 4 355 3 762 -3 730
-4 741 -26 819 -25 90 -84 206 -139 273 -75 92 -215 171 -373 213 -71 18 -118
23 -280 26 -135 2 -216 -1 -265 -10z m705 -1161 c0 -173 -38 -352 -96 -450
-89 -153 -239 -243 -442 -267 -83 -9 -109 -8 -182 6 -166 33 -288 117 -323
221 -23 67 -22 159 4 215 50 112 216 207 434 251 83 16 544 87 578 88 27 1 27
1 27 -64z"/>
<path d="M11703 18896 l-28 -24 0 -1012 0 -1012 28 -24 c27 -23 35 -24 162
-24 127 0 135 1 162 24 l28 24 3 979 c2 538 0 993 -3 1012 -4 18 -17 44 -30
57 -23 23 -30 24 -159 24 -128 0 -136 -1 -163 -24z"/>
<path d="M21656 18894 l-26 -27 0 -1009 0 -1009 26 -24 c26 -24 32 -25 163
-25 142 1 157 5 179 47 17 31 17 1995 0 2026 -22 42 -37 46 -179 47 -134 0
-137 0 -163 -26z"/>
<path d="M24925 18895 l-25 -24 0 -1011 0 -1011 25 -24 c23 -24 29 -25 164
-25 l139 0 26 31 26 31 -2 1003 -3 1003 -24 26 c-24 26 -27 26 -163 26 -134 0
-140 -1 -163 -25z"/>
<path d="M2853 15480 c-49 -20 -59 -96 -17 -129 l27 -21 14012 0 14012 0 27
21 c32 25 35 75 7 110 l-19 24 -14014 2 c-8059 1 -14022 -2 -14035 -7z"/>
<path d="M16997 14180 c-111 -20 -200 -88 -231 -177 -34 -98 -27 -354 12 -430
27 -52 77 -97 137 -125 42 -19 67 -23 160 -23 105 0 114 2 178 33 112 55 146
121 154 297 7 140 -7 234 -44 294 -32 51 -105 105 -161 120 -58 15 -153 20
-205 11z m150 -175 c41 -28 53 -72 53 -206 0 -91 -4 -129 -16 -155 -43 -90
-182 -85 -219 8 -22 57 -21 261 3 308 32 65 116 86 179 45z"/>
<path d="M20890 14180 c-68 -12 -114 -34 -164 -80 -70 -65 -86 -119 -86 -294
0 -181 13 -230 79 -296 64 -64 126 -85 251 -85 158 0 252 49 301 157 22 49 24
65 24 223 0 139 -4 177 -18 207 -42 91 -125 149 -238 168 -71 11 -84 11 -149
0z m135 -166 c55 -26 68 -68 68 -214 0 -97 -4 -134 -17 -158 -23 -44 -68 -65
-125 -59 -90 10 -119 81 -109 266 6 101 25 146 71 166 42 19 72 18 112 -1z"/>
<path d="M11828 14173 c-19 -5 -21 -11 -173 -428 -58 -159 -103 -296 -100
-303 3 -9 28 -12 92 -10 96 3 92 0 127 91 l15 37 139 0 138 0 19 -52 c10 -29
22 -59 28 -65 12 -17 173 -18 183 -2 3 6 -51 171 -122 366 -110 306 -131 356
-151 364 -24 9 -163 11 -195 2z m149 -326 c22 -67 40 -123 38 -125 -1 -1 -43
-1 -92 0 l-89 3 44 128 c25 70 48 125 51 121 3 -3 25 -60 48 -127z"/>
<path d="M12488 14169 c-17 -9 -18 -37 -18 -362 0 -261 3 -356 12 -365 7 -7
45 -12 99 -12 70 0 88 3 93 16 3 9 6 173 6 364 0 335 -1 350 -19 360 -25 13
-151 13 -173 -1z"/>
<path d="M14486 14167 c-22 -16 -277 -704 -268 -725 3 -9 27 -12 91 -10 l86 3
21 42 c12 23 24 51 27 62 5 20 12 21 144 21 l140 0 24 -62 25 -63 87 -3 c72
-2 88 0 93 13 7 16 -237 700 -256 719 -18 18 -191 20 -214 3z m153 -321 c23
-65 41 -120 41 -122 0 -8 -180 -4 -180 4 -1 20 86 250 92 244 3 -4 25 -60 47
-126z"/>
<path d="M15142 14171 c-11 -6 -13 -64 -10 -282 3 -271 3 -274 29 -324 50 -98
173 -153 319 -142 103 8 165 31 216 83 68 67 74 102 74 405 0 293 9 269 -96
269 -111 0 -104 17 -104 -268 0 -227 -2 -250 -20 -279 -26 -43 -84 -61 -140
-44 -28 8 -47 22 -60 44 -18 29 -20 52 -20 279 0 234 -1 248 -19 258 -23 12
-150 13 -169 1z"/>
<path d="M15962 14168 c-7 -7 -12 -41 -12 -84 0 -56 3 -73 16 -78 9 -3 56 -6
105 -6 l89 0 0 -266 c0 -164 4 -273 10 -285 9 -16 22 -19 93 -19 51 0 88 5 95
12 9 9 12 86 12 285 l0 273 89 0 c49 0 96 3 105 6 23 9 23 159 0 168 -9 3
-145 6 -303 6 -210 0 -290 -3 -299 -12z"/>
<path d="M17637 14168 c-16 -12 -17 -43 -15 -373 l3 -360 90 0 90 0 3 205 2
205 63 -115 62 -115 55 0 55 0 60 110 60 110 6 -200 c3 -110 6 -201 7 -203 1
-1 41 -1 90 0 l87 3 3 360 c2 330 1 361 -15 373 -17 12 -101 16 -139 6 -14 -4
-50 -58 -115 -175 -52 -93 -96 -169 -99 -169 -3 0 -47 76 -99 169 -65 118
-100 171 -115 175 -38 10 -122 6 -139 -6z"/>
<path d="M18808 14173 c-19 -5 -21 -11 -173 -428 -58 -159 -103 -296 -100
-303 3 -9 28 -12 92 -10 96 3 92 0 127 91 l15 37 139 0 138 0 19 -52 c10 -29
22 -59 28 -65 12 -17 173 -18 183 -2 3 6 -51 171 -122 366 -110 306 -131 356
-151 364 -24 9 -163 11 -195 2z m149 -326 c22 -67 40 -123 38 -125 -1 -1 -43
-1 -92 0 l-89 3 44 128 c25 70 48 125 51 121 3 -3 25 -60 48 -127z"/>
<path d="M19418 14169 c-14 -8 -18 -24 -18 -77 0 -40 5 -73 12 -80 8 -8 47
-12 110 -12 l98 0 2 -282 3 -283 95 0 95 0 3 282 2 282 103 3 102 3 3 79 c2
57 -1 82 -10 87 -19 13 -579 11 -600 -2z"/>
<path d="M20231 14166 c-8 -9 -11 -116 -9 -372 l3 -359 90 -3 c76 -2 92 0 102
14 10 14 13 100 13 360 0 298 -2 345 -16 358 -21 21 -166 23 -183 2z"/>
<path d="M21528 14169 c-17 -9 -18 -37 -18 -363 0 -292 2 -356 14 -365 9 -8
43 -11 93 -9 l78 3 3 200 3 200 132 -200 132 -200 75 -3 c62 -2 77 0 87 14 10
14 13 99 13 360 0 397 6 374 -95 374 -102 0 -95 16 -95 -212 0 -110 -4 -197
-9 -194 -4 3 -63 93 -131 200 -82 130 -129 196 -144 200 -34 9 -119 6 -138 -5z"/>
<path d="M13410 13926 l0 -105 -107 -3 -108 -3 0 -60 0 -60 105 -5 105 -5 3
-108 3 -108 67 3 67 3 5 105 5 105 103 3 103 3 -3 62 -3 62 -102 3 -102 3 -3
102 -3 102 -67 3 -68 3 0 -105z"/>
</g>
</svg>
