<?xml version="1.0" standalone="no"?>
<!DOCTYPE svg PUBLIC "-//W3C//DTD SVG 20010904//EN"
 "http://www.w3.org/TR/2001/REC-SVG-20010904/DTD/svg10.dtd">
<svg version="1.0" xmlns="http://www.w3.org/2000/svg"
 width="3375.000000pt" height="3375.000000pt" viewBox="0 0 3375.000000 3375.000000"
 preserveAspectRatio="xMidYMid meet">

<g transform="translate(0.000000,3375.000000) scale(0.100000,-0.100000)"
fill="#000000" stroke="none">
<path d="M3270 25384 c0 -16 97 -230 469 -1030 l409 -879 9099 -5 c8477 -5
9109 -7 9263 -23 364 -37 651 -82 920 -143 1153 -260 2181 -810 3065 -1640
670 -629 1219 -1424 1567 -2269 450 -1095 598 -2319 422 -3493 -100 -672 -290
-1283 -589 -1897 -510 -1049 -1301 -1955 -2270 -2602 -972 -648 -2065 -1017
-3240 -1093 -92 -6 -1295 -10 -3102 -10 l-2953 0 0 4845 0 4845 2928 0 2929 0
559 956 c307 526 560 961 562 965 2 5 -1982 9 -4447 9 l-4451 0 0 -6775 0
-6775 3878 0 c3748 0 4020 2 4382 30 1576 124 3122 711 4405 1674 541 406
1056 899 1487 1422 877 1067 1484 2353 1757 3719 65 326 110 648 141 1020 18
209 24 827 11 1077 -97 1812 -730 3479 -1857 4887 -388 485 -865 957 -1376
1364 -842 669 -1867 1196 -2913 1496 -631 181 -1290 289 -1945 321 -228 11
-19110 15 -19110 4z"/>
<path d="M4910 21841 c0 -5 199 -438 443 -962 l443 -954 2447 -3 2447 -2 0
-5740 0 -5740 965 0 965 0 -2 6703 -3 6702 -3852 3 c-2229 1 -3853 -2 -3853
-7z"/>
</g>
</svg>
